<?xml version="1.0" standalone="no"?>
<!DOCTYPE svg PUBLIC "-//W3C//DTD SVG 1.1//EN" "http://www.w3.org/Graphics/SVG/1.1/DTD/svg11.dtd">
<!--Generator: Xara Designer (www.xara.com), SVG filter version: 6.6.0.0-->
<svg fill="none" fill-rule="evenodd" stroke="black" stroke-width="0.501" stroke-linejoin="bevel" stroke-miterlimit="10" font-family="Times New Roman" font-size="16" style="font-variant-ligatures:none" xmlns:xlink="http://www.w3.org/1999/xlink" xmlns="http://www.w3.org/2000/svg" version="1.1" overflow="visible" width="144.609pt" height="46.999pt" viewBox="4881.92 -1304.62 144.609 46.999">
 <defs>
	</defs>
 <g id="Layer 1" transform="scale(1 -1)">
  <g id="Group">
   <rect x="-23.499" y="-72.304" width="46.998" height="144.608" transform="translate(4954.22 1281.12) rotate(90)" fill="#bf0000" stroke="none" stroke-linecap="round" stroke-width="0.19" stroke-linejoin="miter"/>
   <g id="Group_1" fill-rule="nonzero" stroke-linejoin="round" stroke-linecap="round" stroke="none" stroke-width="0.146" fill="#fff5e1">
    <g id="Group_2">
     <path d="M 4897.63,1283.45 L 4901.48,1283.45 L 4901.48,1272.05 L 4897.63,1272.05 L 4897.63,1283.45 Z" marker-start="none" marker-end="none"/>
     <path d="M 4914.57,1283.45 L 4914.57,1272.05 L 4911.41,1272.05 L 4907.08,1277.23 L 4907.08,1272.05 L 4903.33,1272.05 L 4903.33,1283.45 L 4906.49,1283.45 L 4910.82,1278.28 L 4910.82,1283.45 L 4914.57,1283.45 Z" marker-start="none" marker-end="none"/>
     <path d="M 4916.43,1283.45 L 4922.05,1283.45 C 4923.32,1283.45 4924.44,1283.22 4925.41,1282.76 C 4926.39,1282.3 4927.14,1281.64 4927.68,1280.78 C 4928.22,1279.93 4928.48,1278.92 4928.48,1277.75 C 4928.48,1276.59 4928.22,1275.58 4927.68,1274.72 C 4927.14,1273.87 4926.39,1273.21 4925.41,1272.75 C 4924.44,1272.28 4923.32,1272.05 4922.05,1272.05 L 4916.43,1272.05 L 4916.43,1283.45 Z M 4921.89,1275.05 C 4922.71,1275.05 4923.37,1275.29 4923.87,1275.76 C 4924.36,1276.23 4924.61,1276.9 4924.61,1277.75 C 4924.61,1278.61 4924.36,1279.28 4923.87,1279.75 C 4923.37,1280.22 4922.71,1280.46 4921.89,1280.46 L 4920.28,1280.46 L 4920.28,1275.05 L 4921.89,1275.05 Z" marker-start="none" marker-end="none"/>
     <path d="M 4935.34,1271.79 C 4933.6,1271.79 4932.23,1272.27 4931.26,1273.21 C 4930.28,1274.15 4929.79,1275.48 4929.79,1277.18 L 4929.79,1283.45 L 4933.63,1283.45 L 4933.63,1277.3 C 4933.63,1276.46 4933.78,1275.85 4934.08,1275.47 C 4934.38,1275.09 4934.81,1274.9 4935.38,1274.9 C 4935.94,1274.9 4936.37,1275.09 4936.67,1275.47 C 4936.97,1275.85 4937.12,1276.46 4937.12,1277.3 L 4937.12,1283.45 L 4940.9,1283.45 L 4940.9,1277.18 C 4940.9,1275.48 4940.41,1274.15 4939.43,1273.21 C 4938.45,1272.27 4937.09,1271.79 4935.34,1271.79 Z" marker-start="none" marker-end="none"/>
     <path d="M 4946.91,1271.79 C 4945.97,1271.79 4945.05,1271.9 4944.15,1272.11 C 4943.25,1272.32 4942.52,1272.61 4941.94,1272.96 L 4943.18,1275.77 C 4943.72,1275.45 4944.33,1275.2 4945.01,1275.01 C 4945.68,1274.82 4946.32,1274.72 4946.94,1274.72 C 4947.48,1274.72 4947.86,1274.78 4948.08,1274.88 C 4948.31,1274.98 4948.43,1275.14 4948.43,1275.34 C 4948.43,1275.58 4948.28,1275.76 4947.98,1275.88 C 4947.68,1276 4947.19,1276.13 4946.5,1276.27 C 4945.62,1276.46 4944.89,1276.65 4944.3,1276.87 C 4943.72,1277.08 4943.21,1277.43 4942.77,1277.91 C 4942.34,1278.39 4942.12,1279.05 4942.12,1279.87 C 4942.12,1280.59 4942.32,1281.24 4942.73,1281.83 C 4943.13,1282.41 4943.73,1282.87 4944.52,1283.21 C 4945.32,1283.55 4946.29,1283.71 4947.43,1283.71 C 4948.21,1283.71 4948.98,1283.63 4949.74,1283.46 C 4950.49,1283.29 4951.16,1283.05 4951.73,1282.72 L 4950.57,1279.94 C 4949.46,1280.5 4948.4,1280.78 4947.4,1280.78 C 4946.41,1280.78 4945.92,1280.54 4945.92,1280.07 C 4945.92,1279.84 4946.06,1279.67 4946.36,1279.55 C 4946.65,1279.44 4947.13,1279.32 4947.81,1279.19 C 4948.68,1279.02 4949.41,1278.84 4950.01,1278.63 C 4950.6,1278.41 4951.12,1278.07 4951.56,1277.59 C 4952,1277.11 4952.22,1276.46 4952.22,1275.64 C 4952.22,1274.92 4952.02,1274.27 4951.62,1273.69 C 4951.22,1273.11 4950.62,1272.65 4949.82,1272.31 C 4949.02,1271.96 4948.05,1271.79 4946.91,1271.79 Z" marker-start="none" marker-end="none"/>
     <path d="M 4955.68,1280.47 L 4952.34,1280.47 L 4952.34,1283.45 L 4962.86,1283.45 L 4962.86,1280.47 L 4959.52,1280.47 L 4959.52,1272.05 L 4955.68,1272.05 L 4955.68,1280.47 Z" marker-start="none" marker-end="none"/>
     <path d="M 4968.74,1274.92 L 4967.69,1274.92 L 4967.69,1272.05 L 4963.85,1272.05 L 4963.85,1283.45 L 4969.34,1283.45 C 4970.39,1283.45 4971.31,1283.28 4972.09,1282.93 C 4972.87,1282.59 4973.48,1282.09 4973.9,1281.43 C 4974.32,1280.78 4974.53,1280.02 4974.53,1279.15 C 4974.53,1278.34 4974.35,1277.63 4973.98,1277.02 C 4973.61,1276.41 4973.08,1275.93 4972.38,1275.57 L 4974.78,1272.05 L 4970.67,1272.05 L 4968.74,1274.92 Z M 4970.66,1279.15 C 4970.66,1279.58 4970.53,1279.91 4970.27,1280.14 C 4970.01,1280.37 4969.61,1280.49 4969.09,1280.49 L 4967.69,1280.49 L 4967.69,1277.82 L 4969.09,1277.82 C 4969.61,1277.82 4970.01,1277.93 4970.27,1278.17 C 4970.53,1278.4 4970.66,1278.73 4970.66,1279.15 Z" marker-start="none" marker-end="none"/>
     <path d="M 4975.98,1283.45 L 4979.83,1283.45 L 4979.83,1272.05 L 4975.98,1272.05 L 4975.98,1283.45 Z" marker-start="none" marker-end="none"/>
     <path d="M 4989.46,1274.04 L 4985.12,1274.04 L 4984.36,1272.05 L 4980.45,1272.05 L 4985.43,1283.45 L 4989.21,1283.45 L 4994.2,1272.05 L 4990.22,1272.05 L 4989.46,1274.04 Z M 4988.4,1276.81 L 4987.29,1279.68 L 4986.18,1276.81 L 4988.4,1276.81 Z" marker-start="none" marker-end="none"/>
     <path d="M 4994.82,1283.45 L 4998.66,1283.45 L 4998.66,1275.03 L 5003.81,1275.03 L 5003.81,1272.05 L 4994.82,1272.05 L 4994.82,1283.45 Z" marker-start="none" marker-end="none"/>
    </g>
   </g>
   <g id="Group_3" fill-rule="nonzero" stroke-linejoin="round" stroke-linecap="round" stroke="none" stroke-width="0.052" fill="#fff5e1">
    <g id="Group_4">
     <path d="M 4961.47,1265.76 L 4961.47,1265.34 L 4959.44,1265.34 L 4959.44,1268.04 L 4961.41,1268.04 L 4961.41,1267.62 L 4959.94,1267.62 L 4959.94,1266.92 L 4961.25,1266.92 L 4961.25,1266.51 L 4959.94,1266.51 L 4959.94,1265.76 L 4961.47,1265.76 Z" marker-start="none" marker-end="none"/>
     <path d="M 4963.88,1267.4 L 4963,1265.34 L 4962.5,1265.34 L 4961.62,1267.4 L 4962.12,1267.4 L 4962.76,1265.88 L 4963.42,1267.4 L 4963.88,1267.4 Z" marker-start="none" marker-end="none"/>
     <path d="M 4966.06,1266.36 C 4966.06,1266.33 4966.06,1266.28 4966.05,1266.22 L 4964.44,1266.22 C 4964.46,1266.07 4964.54,1265.95 4964.66,1265.86 C 4964.78,1265.77 4964.93,1265.73 4965.1,1265.73 C 4965.33,1265.73 4965.52,1265.8 4965.66,1265.95 L 4965.92,1265.65 C 4965.83,1265.54 4965.71,1265.46 4965.57,1265.4 C 4965.43,1265.34 4965.27,1265.32 4965.09,1265.32 C 4964.86,1265.32 4964.67,1265.36 4964.49,1265.45 C 4964.32,1265.54 4964.19,1265.67 4964.09,1265.83 C 4964,1265.99 4963.95,1266.17 4963.95,1266.37 C 4963.95,1266.57 4964,1266.75 4964.09,1266.91 C 4964.18,1267.08 4964.31,1267.2 4964.47,1267.29 C 4964.63,1267.38 4964.82,1267.43 4965.02,1267.43 C 4965.22,1267.43 4965.4,1267.38 4965.56,1267.29 C 4965.71,1267.2 4965.84,1267.08 4965.93,1266.92 C 4966.02,1266.76 4966.06,1266.57 4966.06,1266.36 Z M 4965.02,1267.04 C 4964.86,1267.04 4964.73,1266.99 4964.63,1266.9 C 4964.52,1266.81 4964.45,1266.69 4964.43,1266.54 L 4965.6,1266.54 C 4965.58,1266.69 4965.52,1266.81 4965.41,1266.9 C 4965.31,1266.99 4965.18,1267.04 4965.02,1267.04 Z" marker-start="none" marker-end="none"/>
     <path d="M 4966.98,1267.1 C 4967.12,1267.32 4967.36,1267.43 4967.71,1267.43 L 4967.71,1266.97 C 4967.67,1266.97 4967.64,1266.98 4967.6,1266.98 C 4967.41,1266.98 4967.27,1266.92 4967.16,1266.81 C 4967.06,1266.7 4967,1266.55 4967,1266.34 L 4967,1265.34 L 4966.52,1265.34 L 4966.52,1267.4 L 4966.98,1267.4 L 4966.98,1267.1 Z" marker-start="none" marker-end="none"/>
     <path d="M 4970.13,1267.4 L 4969.16,1265.18 C 4969.07,1264.95 4968.96,1264.8 4968.84,1264.7 C 4968.71,1264.61 4968.55,1264.57 4968.37,1264.57 C 4968.27,1264.57 4968.17,1264.59 4968.06,1264.62 C 4967.96,1264.65 4967.88,1264.7 4967.82,1264.76 L 4968.01,1265.11 C 4968.06,1265.07 4968.11,1265.03 4968.17,1265.01 C 4968.24,1264.98 4968.3,1264.97 4968.36,1264.97 C 4968.45,1264.97 4968.52,1264.99 4968.57,1265.04 C 4968.63,1265.08 4968.68,1265.15 4968.73,1265.25 L 4968.76,1265.34 L 4967.86,1267.4 L 4968.36,1267.4 L 4969.01,1265.88 L 4969.67,1267.4 L 4970.13,1267.4 Z" marker-start="none" marker-end="none"/>
     <path d="M 4971.72,1265.45 C 4971.67,1265.41 4971.6,1265.37 4971.52,1265.35 C 4971.44,1265.33 4971.35,1265.32 4971.26,1265.32 C 4971.03,1265.32 4970.86,1265.38 4970.74,1265.49 C 4970.61,1265.61 4970.55,1265.78 4970.55,1266.01 L 4970.55,1267 L 4970.21,1267 L 4970.21,1267.39 L 4970.55,1267.39 L 4970.55,1267.86 L 4971.03,1267.86 L 4971.03,1267.39 L 4971.59,1267.39 L 4971.59,1267 L 4971.03,1267 L 4971.03,1266.02 C 4971.03,1265.92 4971.06,1265.85 4971.11,1265.79 C 4971.16,1265.74 4971.23,1265.71 4971.32,1265.71 C 4971.43,1265.71 4971.52,1265.74 4971.59,1265.8 L 4971.72,1265.45 Z" marker-start="none" marker-end="none"/>
     <path d="M 4973.29,1267.43 C 4973.55,1267.43 4973.76,1267.35 4973.91,1267.2 C 4974.07,1267.05 4974.15,1266.82 4974.15,1266.52 L 4974.15,1265.34 L 4973.67,1265.34 L 4973.67,1266.46 C 4973.67,1266.64 4973.62,1266.78 4973.54,1266.87 C 4973.45,1266.96 4973.33,1267.01 4973.18,1267.01 C 4973,1267.01 4972.86,1266.95 4972.76,1266.85 C 4972.65,1266.74 4972.6,1266.59 4972.6,1266.38 L 4972.6,1265.34 L 4972.12,1265.34 L 4972.12,1268.2 L 4972.6,1268.2 L 4972.6,1267.16 C 4972.68,1267.25 4972.78,1267.31 4972.9,1267.36 C 4973.01,1267.4 4973.15,1267.43 4973.29,1267.43 Z" marker-start="none" marker-end="none"/>
     <path d="M 4974.76,1267.4 L 4975.24,1267.4 L 4975.24,1265.34 L 4974.76,1265.34 L 4974.76,1267.4 Z M 4975.01,1267.74 C 4974.92,1267.74 4974.84,1267.77 4974.78,1267.82 C 4974.73,1267.88 4974.7,1267.95 4974.7,1268.03 C 4974.7,1268.11 4974.73,1268.18 4974.78,1268.24 C 4974.84,1268.29 4974.92,1268.32 4975.01,1268.32 C 4975.09,1268.32 4975.17,1268.29 4975.23,1268.24 C 4975.28,1268.19 4975.31,1268.12 4975.31,1268.04 C 4975.31,1267.96 4975.28,1267.89 4975.23,1267.83 C 4975.17,1267.77 4975.1,1267.74 4975.01,1267.74 Z" marker-start="none" marker-end="none"/>
     <path d="M 4977.05,1267.43 C 4977.31,1267.43 4977.51,1267.35 4977.67,1267.2 C 4977.83,1267.05 4977.91,1266.82 4977.91,1266.52 L 4977.91,1265.34 L 4977.42,1265.34 L 4977.42,1266.46 C 4977.42,1266.64 4977.38,1266.78 4977.3,1266.87 C 4977.21,1266.96 4977.09,1267.01 4976.93,1267.01 C 4976.76,1267.01 4976.62,1266.95 4976.51,1266.85 C 4976.41,1266.74 4976.36,1266.59 4976.36,1266.38 L 4976.36,1265.34 L 4975.88,1265.34 L 4975.88,1267.4 L 4976.34,1267.4 L 4976.34,1267.14 C 4976.42,1267.23 4976.52,1267.3 4976.64,1267.35 C 4976.76,1267.4 4976.89,1267.43 4977.05,1267.43 Z" marker-start="none" marker-end="none"/>
     <path d="M 4980.58,1267.4 L 4980.58,1265.66 C 4980.58,1264.93 4980.21,1264.57 4979.47,1264.57 C 4979.27,1264.57 4979.09,1264.59 4978.91,1264.64 C 4978.73,1264.69 4978.58,1264.77 4978.47,1264.86 L 4978.69,1265.22 C 4978.78,1265.15 4978.89,1265.09 4979.03,1265.04 C 4979.16,1265 4979.3,1264.98 4979.44,1264.98 C 4979.67,1264.98 4979.84,1265.03 4979.94,1265.13 C 4980.05,1265.23 4980.1,1265.39 4980.1,1265.6 L 4980.1,1265.71 C 4980.02,1265.62 4979.92,1265.55 4979.8,1265.51 C 4979.68,1265.46 4979.55,1265.44 4979.41,1265.44 C 4979.21,1265.44 4979.04,1265.48 4978.88,1265.56 C 4978.72,1265.64 4978.6,1265.76 4978.51,1265.91 C 4978.41,1266.07 4978.37,1266.24 4978.37,1266.43 C 4978.37,1266.63 4978.41,1266.8 4978.51,1266.95 C 4978.6,1267.1 4978.72,1267.22 4978.88,1267.3 C 4979.04,1267.38 4979.21,1267.43 4979.41,1267.43 C 4979.56,1267.43 4979.69,1267.4 4979.82,1267.35 C 4979.94,1267.3 4980.04,1267.23 4980.12,1267.13 L 4980.12,1267.4 L 4980.58,1267.4 Z M 4979.48,1265.84 C 4979.67,1265.84 4979.82,1265.9 4979.93,1266.01 C 4980.05,1266.12 4980.11,1266.26 4980.11,1266.43 C 4980.11,1266.61 4980.05,1266.75 4979.93,1266.86 C 4979.82,1266.96 4979.67,1267.02 4979.48,1267.02 C 4979.3,1267.02 4979.15,1266.96 4979.03,1266.86 C 4978.91,1266.75 4978.85,1266.61 4978.85,1266.43 C 4978.85,1266.26 4978.91,1266.12 4979.03,1266.01 C 4979.15,1265.9 4979.3,1265.84 4979.48,1265.84 Z" marker-start="none" marker-end="none"/>
     <path d="M 4982.32,1268.04 L 4982.82,1268.04 L 4982.82,1265.34 L 4982.32,1265.34 L 4982.32,1268.04 Z" marker-start="none" marker-end="none"/>
     <path d="M 4984.68,1267.43 C 4984.93,1267.43 4985.14,1267.35 4985.3,1267.2 C 4985.46,1267.05 4985.53,1266.82 4985.53,1266.52 L 4985.53,1265.34 L 4985.05,1265.34 L 4985.05,1266.46 C 4985.05,1266.64 4985.01,1266.78 4984.93,1266.87 C 4984.84,1266.96 4984.72,1267.01 4984.56,1267.01 C 4984.39,1267.01 4984.24,1266.95 4984.14,1266.85 C 4984.04,1266.74 4983.99,1266.59 4983.99,1266.38 L 4983.99,1265.34 L 4983.51,1265.34 L 4983.51,1267.4 L 4983.97,1267.4 L 4983.97,1267.14 C 4984.05,1267.23 4984.15,1267.3 4984.27,1267.35 C 4984.39,1267.4 4984.52,1267.43 4984.68,1267.43 Z" marker-start="none" marker-end="none"/>
     <path d="M 4988.18,1268.2 L 4988.18,1265.34 L 4987.72,1265.34 L 4987.72,1265.61 C 4987.64,1265.51 4987.54,1265.44 4987.43,1265.39 C 4987.31,1265.34 4987.18,1265.32 4987.04,1265.32 C 4986.84,1265.32 4986.66,1265.36 4986.51,1265.45 C 4986.35,1265.54 4986.22,1265.66 4986.13,1265.82 C 4986.04,1265.98 4986,1266.16 4986,1266.37 C 4986,1266.58 4986.04,1266.77 4986.13,1266.92 C 4986.22,1267.08 4986.35,1267.21 4986.51,1267.29 C 4986.66,1267.38 4986.84,1267.43 4987.04,1267.43 C 4987.18,1267.43 4987.3,1267.4 4987.41,1267.36 C 4987.53,1267.31 4987.62,1267.24 4987.7,1267.15 L 4987.7,1268.2 L 4988.18,1268.2 Z M 4987.1,1265.73 C 4987.21,1265.73 4987.32,1265.76 4987.41,1265.81 C 4987.5,1265.86 4987.57,1265.94 4987.63,1266.03 C 4987.68,1266.13 4987.71,1266.24 4987.71,1266.37 C 4987.71,1266.5 4987.68,1266.61 4987.63,1266.71 C 4987.57,1266.81 4987.5,1266.89 4987.41,1266.94 C 4987.32,1266.99 4987.21,1267.02 4987.1,1267.02 C 4986.98,1267.02 4986.88,1266.99 4986.78,1266.94 C 4986.69,1266.89 4986.62,1266.81 4986.56,1266.71 C 4986.51,1266.61 4986.48,1266.5 4986.48,1266.37 C 4986.48,1266.24 4986.51,1266.13 4986.56,1266.03 C 4986.62,1265.94 4986.69,1265.86 4986.78,1265.81 C 4986.88,1265.76 4986.98,1265.73 4987.1,1265.73 Z" marker-start="none" marker-end="none"/>
     <path d="M 4990.81,1267.4 L 4990.81,1265.34 L 4990.35,1265.34 L 4990.35,1265.61 C 4990.27,1265.51 4990.18,1265.44 4990.06,1265.39 C 4989.95,1265.34 4989.82,1265.32 4989.69,1265.32 C 4989.41,1265.32 4989.2,1265.39 4989.04,1265.55 C 4988.88,1265.7 4988.8,1265.93 4988.8,1266.23 L 4988.8,1267.4 L 4989.28,1267.4 L 4989.28,1266.29 C 4989.28,1266.11 4989.32,1265.97 4989.41,1265.88 C 4989.49,1265.79 4989.61,1265.74 4989.77,1265.74 C 4989.94,1265.74 4990.07,1265.79 4990.18,1265.9 C 4990.28,1266.01 4990.33,1266.16 4990.33,1266.36 L 4990.33,1267.4 L 4990.81,1267.4 Z" marker-start="none" marker-end="none"/>
     <path d="M 4992.08,1265.32 C 4991.91,1265.32 4991.75,1265.34 4991.59,1265.38 C 4991.43,1265.43 4991.3,1265.48 4991.21,1265.55 L 4991.39,1265.91 C 4991.49,1265.85 4991.6,1265.8 4991.73,1265.77 C 4991.86,1265.73 4991.98,1265.71 4992.11,1265.71 C 4992.4,1265.71 4992.54,1265.79 4992.54,1265.94 C 4992.54,1266.01 4992.51,1266.06 4992.43,1266.09 C 4992.36,1266.12 4992.24,1266.14 4992.08,1266.17 C 4991.91,1266.19 4991.77,1266.22 4991.67,1266.26 C 4991.56,1266.29 4991.47,1266.35 4991.39,1266.43 C 4991.31,1266.52 4991.27,1266.63 4991.27,1266.78 C 4991.27,1266.98 4991.35,1267.13 4991.52,1267.25 C 4991.68,1267.37 4991.9,1267.43 4992.18,1267.43 C 4992.32,1267.43 4992.46,1267.41 4992.6,1267.38 C 4992.74,1267.35 4992.86,1267.3 4992.95,1267.25 L 4992.76,1266.88 C 4992.59,1266.98 4992.39,1267.04 4992.17,1267.04 C 4992.03,1267.04 4991.92,1267.02 4991.85,1266.97 C 4991.78,1266.93 4991.74,1266.87 4991.74,1266.81 C 4991.74,1266.73 4991.78,1266.67 4991.86,1266.64 C 4991.94,1266.61 4992.06,1266.58 4992.22,1266.55 C 4992.39,1266.52 4992.52,1266.5 4992.63,1266.46 C 4992.73,1266.43 4992.82,1266.37 4992.9,1266.29 C 4992.98,1266.21 4993.01,1266.1 4993.01,1265.95 C 4993.01,1265.76 4992.93,1265.61 4992.76,1265.49 C 4992.6,1265.37 4992.37,1265.32 4992.08,1265.32 Z" marker-start="none" marker-end="none"/>
     <path d="M 4994.67,1265.45 C 4994.61,1265.41 4994.54,1265.37 4994.46,1265.35 C 4994.38,1265.33 4994.29,1265.32 4994.2,1265.32 C 4993.98,1265.32 4993.8,1265.38 4993.68,1265.49 C 4993.56,1265.61 4993.49,1265.78 4993.49,1266.01 L 4993.49,1267 L 4993.15,1267 L 4993.15,1267.39 L 4993.49,1267.39 L 4993.49,1267.86 L 4993.98,1267.86 L 4993.98,1267.39 L 4994.53,1267.39 L 4994.53,1267 L 4993.98,1267 L 4993.98,1266.02 C 4993.98,1265.92 4994,1265.85 4994.05,1265.79 C 4994.1,1265.74 4994.17,1265.71 4994.26,1265.71 C 4994.37,1265.71 4994.46,1265.74 4994.53,1265.8 L 4994.67,1265.45 Z" marker-start="none" marker-end="none"/>
     <path d="M 4995.52,1267.1 C 4995.66,1267.32 4995.9,1267.43 4996.26,1267.43 L 4996.26,1266.97 C 4996.21,1266.97 4996.18,1266.98 4996.14,1266.98 C 4995.95,1266.98 4995.81,1266.92 4995.7,1266.81 C 4995.6,1266.7 4995.55,1266.55 4995.55,1266.34 L 4995.55,1265.34 L 4995.06,1265.34 L 4995.06,1267.4 L 4995.52,1267.4 L 4995.52,1267.1 Z" marker-start="none" marker-end="none"/>
     <path d="M 4996.66,1267.4 L 4997.15,1267.4 L 4997.15,1265.34 L 4996.66,1265.34 L 4996.66,1267.4 Z M 4996.91,1267.74 C 4996.82,1267.74 4996.74,1267.77 4996.69,1267.82 C 4996.63,1267.88 4996.6,1267.95 4996.6,1268.03 C 4996.6,1268.11 4996.63,1268.18 4996.69,1268.24 C 4996.74,1268.29 4996.82,1268.32 4996.91,1268.32 C 4996.99,1268.32 4997.07,1268.29 4997.13,1268.24 C 4997.19,1268.19 4997.22,1268.12 4997.22,1268.04 C 4997.22,1267.96 4997.19,1267.89 4997.13,1267.83 C 4997.07,1267.77 4997,1267.74 4996.91,1267.74 Z" marker-start="none" marker-end="none"/>
     <path d="M 4998.57,1267.43 C 4998.87,1267.43 4999.1,1267.35 4999.26,1267.21 C 4999.42,1267.06 4999.5,1266.84 4999.5,1266.55 L 4999.5,1265.34 L 4999.05,1265.34 L 4999.05,1265.59 C 4998.99,1265.5 4998.9,1265.43 4998.79,1265.39 C 4998.69,1265.34 4998.55,1265.32 4998.4,1265.32 C 4998.24,1265.32 4998.11,1265.34 4997.99,1265.4 C 4997.88,1265.45 4997.79,1265.52 4997.73,1265.62 C 4997.66,1265.71 4997.63,1265.82 4997.63,1265.93 C 4997.63,1266.12 4997.7,1266.27 4997.84,1266.38 C 4997.98,1266.49 4998.19,1266.55 4998.49,1266.55 L 4999.02,1266.55 L 4999.02,1266.58 C 4999.02,1266.72 4998.98,1266.83 4998.89,1266.91 C 4998.81,1266.99 4998.68,1267.02 4998.51,1267.02 C 4998.39,1267.02 4998.28,1267.01 4998.17,1266.97 C 4998.05,1266.93 4997.96,1266.88 4997.88,1266.82 L 4997.69,1267.17 C 4997.8,1267.25 4997.93,1267.32 4998.08,1267.36 C 4998.23,1267.4 4998.4,1267.43 4998.57,1267.43 Z M 4998.5,1265.67 C 4998.62,1265.67 4998.73,1265.69 4998.82,1265.75 C 4998.92,1265.81 4998.98,1265.88 4999.02,1265.99 L 4999.02,1266.23 L 4998.52,1266.23 C 4998.24,1266.23 4998.11,1266.14 4998.11,1265.95 C 4998.11,1265.87 4998.14,1265.8 4998.21,1265.74 C 4998.28,1265.69 4998.38,1265.67 4998.5,1265.67 Z" marker-start="none" marker-end="none"/>
     <path d="M 5000.12,1268.2 L 5000.6,1268.2 L 5000.6,1265.34 L 5000.12,1265.34 L 5000.12,1268.2 Z" marker-start="none" marker-end="none"/>
    </g>
   </g>
   <path d="M 4956.85,1265.75 L 4890.03,1265.74 L 4890.03,1296.5 L 5018.42,1296.5 L 5018.42,1265.71 L 5002.28,1265.71" fill="none" stroke="#fff5e1" stroke-width="0.722" stroke-linecap="square" stroke-linejoin="miter"/>
   <g id="Group_5" fill-rule="nonzero" stroke-linejoin="round" stroke-linecap="round" stroke="none" stroke-width="0.076" fill="#fff5e1">
    <g id="Group_6">
     <path d="M 4903.21,1288.71 L 4901.49,1288.71 L 4901.49,1290.25 L 4906.93,1290.25 L 4906.93,1288.71 L 4905.2,1288.71 L 4905.2,1284.35 L 4903.21,1284.35 L 4903.21,1288.71 Z" marker-start="none" marker-end="none"/>
     <path d="M 4913.26,1290.25 L 4913.26,1284.35 L 4911.27,1284.35 L 4911.27,1286.53 L 4909.44,1286.53 L 4909.44,1284.35 L 4907.45,1284.35 L 4907.45,1290.25 L 4909.44,1290.25 L 4909.44,1288.16 L 4911.27,1288.16 L 4911.27,1290.25 L 4913.26,1290.25 Z" marker-start="none" marker-end="none"/>
     <path d="M 4919.13,1285.85 L 4919.13,1284.35 L 4914.23,1284.35 L 4914.23,1290.25 L 4919.02,1290.25 L 4919.02,1288.75 L 4916.18,1288.75 L 4916.18,1288.06 L 4918.68,1288.06 L 4918.68,1286.63 L 4916.18,1286.63 L 4916.18,1285.85 L 4919.13,1285.85 Z" marker-start="none" marker-end="none"/>
    </g>
   </g>
  </g>
 </g>
</svg>
